<svg xmlns="http://www.w3.org/2000/svg" width="708" height="236" font-family="sans-serif" font-size="11">
<rect width="100%" height="100%" fill="white"/>
<rect x="28" y="28" width="180" height="180" fill="none" stroke="#888"/>
<line x1="28" y1="208" x2="208" y2="28" stroke="#bbb" stroke-dasharray="4"/>
<text x="28" y="20">binary (p_yes), n=984</text>
<text x="28" y="224">confidence → observed ↑</text>
<circle cx="35.2" cy="201.4" r="7.8" fill="#2f6bd6" fill-opacity="0.65"/>
<circle cx="53.3" cy="171.4" r="4.2" fill="#2f6bd6" fill-opacity="0.65"/>
<circle cx="71.6" cy="134.4" r="3.3" fill="#2f6bd6" fill-opacity="0.65"/>
<circle cx="90.7" cy="126.7" r="3.6" fill="#2f6bd6" fill-opacity="0.65"/>
<circle cx="110.8" cy="122.7" r="3.3" fill="#2f6bd6" fill-opacity="0.65"/>
<circle cx="127.4" cy="91.0" r="3.3" fill="#2f6bd6" fill-opacity="0.65"/>
<circle cx="144.3" cy="64.0" r="3.4" fill="#2f6bd6" fill-opacity="0.65"/>
<circle cx="164.7" cy="50.0" r="4.0" fill="#2f6bd6" fill-opacity="0.65"/>
<circle cx="181.9" cy="47.1" r="4.3" fill="#2f6bd6" fill-opacity="0.65"/>
<circle cx="201.9" cy="29.3" r="6.8" fill="#2f6bd6" fill-opacity="0.65"/>
<rect x="264" y="28" width="180" height="180" fill="none" stroke="#888"/>
<line x1="264" y1="208" x2="444" y2="28" stroke="#bbb" stroke-dasharray="4"/>
<text x="264" y="20">multiclass (top-label), n=2143</text>
<text x="264" y="224">confidence → observed ↑</text>
<circle cx="297.9" cy="28.0" r="2.2" fill="#2f6bd6" fill-opacity="0.65"/>
<circle cx="312.3" cy="148.0" r="2.5" fill="#2f6bd6" fill-opacity="0.65"/>
<circle cx="327.9" cy="158.9" r="2.9" fill="#2f6bd6" fill-opacity="0.65"/>
<circle cx="345.7" cy="136.8" r="3.3" fill="#2f6bd6" fill-opacity="0.65"/>
<circle cx="363.6" cy="114.5" r="4.2" fill="#2f6bd6" fill-opacity="0.65"/>
<circle cx="381.5" cy="102.3" r="4.2" fill="#2f6bd6" fill-opacity="0.65"/>
<circle cx="400.0" cy="86.6" r="4.2" fill="#2f6bd6" fill-opacity="0.65"/>
<circle cx="417.7" cy="72.1" r="4.8" fill="#2f6bd6" fill-opacity="0.65"/>
<circle cx="440.8" cy="34.8" r="9.5" fill="#2f6bd6" fill-opacity="0.65"/>
<rect x="500" y="28" width="180" height="180" fill="none" stroke="#888"/>
<line x1="500" y1="208" x2="680" y2="28" stroke="#bbb" stroke-dasharray="4"/>
<text x="500" y="20">multilabel (p_yes), n=2029</text>
<text x="500" y="224">confidence → observed ↑</text>
<circle cx="506.9" cy="205.7" r="8.6" fill="#2f6bd6" fill-opacity="0.65"/>
<circle cx="525.1" cy="185.2" r="5.0" fill="#2f6bd6" fill-opacity="0.65"/>
<circle cx="544.0" cy="177.5" r="4.1" fill="#2f6bd6" fill-opacity="0.65"/>
<circle cx="562.7" cy="170.9" r="3.6" fill="#2f6bd6" fill-opacity="0.65"/>
<circle cx="580.9" cy="145.5" r="3.7" fill="#2f6bd6" fill-opacity="0.65"/>
<circle cx="598.6" cy="96.3" r="3.5" fill="#2f6bd6" fill-opacity="0.65"/>
<circle cx="617.7" cy="114.6" r="3.8" fill="#2f6bd6" fill-opacity="0.65"/>
<circle cx="634.3" cy="110.0" r="3.8" fill="#2f6bd6" fill-opacity="0.65"/>
<circle cx="652.9" cy="72.4" r="3.7" fill="#2f6bd6" fill-opacity="0.65"/>
<circle cx="673.2" cy="33.3" r="4.6" fill="#2f6bd6" fill-opacity="0.65"/>
</svg>
