<svg xmlns="http://www.w3.org/2000/svg" width="708" height="236" font-family="sans-serif" font-size="11">
<rect width="100%" height="100%" fill="white"/>
<rect x="28" y="28" width="180" height="180" fill="none" stroke="#888"/>
<line x1="28" y1="208" x2="208" y2="28" stroke="#bbb" stroke-dasharray="4"/>
<text x="28" y="20">binary (p_yes), n=984</text>
<text x="28" y="224">confidence → observed ↑</text>
<circle cx="31.0" cy="198.8" r="7.9" fill="#2f6bd6" fill-opacity="0.65"/>
<circle cx="52.3" cy="169.7" r="4.0" fill="#2f6bd6" fill-opacity="0.65"/>
<circle cx="71.1" cy="145.0" r="3.3" fill="#2f6bd6" fill-opacity="0.65"/>
<circle cx="89.5" cy="92.3" r="3.5" fill="#2f6bd6" fill-opacity="0.65"/>
<circle cx="107.3" cy="83.4" r="3.5" fill="#2f6bd6" fill-opacity="0.65"/>
<circle cx="126.9" cy="96.6" r="3.3" fill="#2f6bd6" fill-opacity="0.65"/>
<circle cx="145.0" cy="58.0" r="3.6" fill="#2f6bd6" fill-opacity="0.65"/>
<circle cx="163.4" cy="49.4" r="3.9" fill="#2f6bd6" fill-opacity="0.65"/>
<circle cx="182.0" cy="46.9" r="4.5" fill="#2f6bd6" fill-opacity="0.65"/>
<circle cx="202.3" cy="32.8" r="6.7" fill="#2f6bd6" fill-opacity="0.65"/>
<rect x="264" y="28" width="180" height="180" fill="none" stroke="#888"/>
<line x1="264" y1="208" x2="444" y2="28" stroke="#bbb" stroke-dasharray="4"/>
<text x="264" y="20">multiclass (top-label), n=2143</text>
<text x="264" y="224">confidence → observed ↑</text>
<circle cx="305.1" cy="208.0" r="2.2" fill="#2f6bd6" fill-opacity="0.65"/>
<circle cx="328.3" cy="109.0" r="2.9" fill="#2f6bd6" fill-opacity="0.65"/>
<circle cx="346.5" cy="139.4" r="3.5" fill="#2f6bd6" fill-opacity="0.65"/>
<circle cx="363.5" cy="118.0" r="4.4" fill="#2f6bd6" fill-opacity="0.65"/>
<circle cx="381.3" cy="91.5" r="4.7" fill="#2f6bd6" fill-opacity="0.65"/>
<circle cx="398.7" cy="81.3" r="4.6" fill="#2f6bd6" fill-opacity="0.65"/>
<circle cx="418.6" cy="67.8" r="5.1" fill="#2f6bd6" fill-opacity="0.65"/>
<circle cx="440.1" cy="35.8" r="9.0" fill="#2f6bd6" fill-opacity="0.65"/>
<rect x="500" y="28" width="180" height="180" fill="none" stroke="#888"/>
<line x1="500" y1="208" x2="680" y2="28" stroke="#bbb" stroke-dasharray="4"/>
<text x="500" y="20">multilabel (p_yes), n=2029</text>
<text x="500" y="224">confidence → observed ↑</text>
<circle cx="502.4" cy="203.8" r="9.3" fill="#2f6bd6" fill-opacity="0.65"/>
<circle cx="525.9" cy="174.2" r="4.0" fill="#2f6bd6" fill-opacity="0.65"/>
<circle cx="545.4" cy="160.0" r="3.7" fill="#2f6bd6" fill-opacity="0.65"/>
<circle cx="563.1" cy="151.8" r="3.6" fill="#2f6bd6" fill-opacity="0.65"/>
<circle cx="580.8" cy="144.8" r="3.5" fill="#2f6bd6" fill-opacity="0.65"/>
<circle cx="598.8" cy="137.6" r="3.4" fill="#2f6bd6" fill-opacity="0.65"/>
<circle cx="616.7" cy="85.6" r="3.4" fill="#2f6bd6" fill-opacity="0.65"/>
<circle cx="634.7" cy="74.3" r="3.7" fill="#2f6bd6" fill-opacity="0.65"/>
<circle cx="653.7" cy="53.7" r="4.0" fill="#2f6bd6" fill-opacity="0.65"/>
<circle cx="673.6" cy="33.1" r="4.4" fill="#2f6bd6" fill-opacity="0.65"/>
</svg>
