<svg xmlns="http://www.w3.org/2000/svg" width="708" height="236" font-family="sans-serif" font-size="11">
<rect width="100%" height="100%" fill="white"/>
<rect x="28" y="28" width="180" height="180" fill="none" stroke="#888"/>
<line x1="28" y1="208" x2="208" y2="28" stroke="#bbb" stroke-dasharray="4"/>
<text x="28" y="20">binary (p_yes), n=210</text>
<text x="28" y="224">confidence → observed ↑</text>
<circle cx="29.3" cy="206.4" r="8.6" fill="#2f6bd6" fill-opacity="0.65"/>
<circle cx="54.7" cy="148.0" r="3.5" fill="#2f6bd6" fill-opacity="0.65"/>
<circle cx="70.7" cy="178.0" r="3.5" fill="#2f6bd6" fill-opacity="0.65"/>
<circle cx="96.9" cy="208.0" r="3.2" fill="#2f6bd6" fill-opacity="0.65"/>
<circle cx="127.9" cy="64.0" r="3.4" fill="#2f6bd6" fill-opacity="0.65"/>
<circle cx="145.9" cy="118.0" r="3.2" fill="#2f6bd6" fill-opacity="0.65"/>
<circle cx="166.2" cy="58.0" r="3.5" fill="#2f6bd6" fill-opacity="0.65"/>
<circle cx="182.6" cy="28.0" r="3.9" fill="#2f6bd6" fill-opacity="0.65"/>
<circle cx="205.1" cy="37.3" r="6.7" fill="#2f6bd6" fill-opacity="0.65"/>
<rect x="264" y="28" width="180" height="180" fill="none" stroke="#888"/>
<line x1="264" y1="208" x2="444" y2="28" stroke="#bbb" stroke-dasharray="4"/>
<text x="264" y="20">multiclass (top-label), n=486</text>
<text x="264" y="224">confidence → observed ↑</text>
<circle cx="322.8" cy="88.0" r="2.7" fill="#2f6bd6" fill-opacity="0.65"/>
<circle cx="345.9" cy="136.0" r="2.9" fill="#2f6bd6" fill-opacity="0.65"/>
<circle cx="363.3" cy="130.0" r="4.2" fill="#2f6bd6" fill-opacity="0.65"/>
<circle cx="381.1" cy="81.2" r="4.7" fill="#2f6bd6" fill-opacity="0.65"/>
<circle cx="398.3" cy="82.0" r="4.6" fill="#2f6bd6" fill-opacity="0.65"/>
<circle cx="417.2" cy="59.9" r="5.2" fill="#2f6bd6" fill-opacity="0.65"/>
<circle cx="440.9" cy="34.6" r="9.1" fill="#2f6bd6" fill-opacity="0.65"/>
<rect x="500" y="28" width="180" height="180" fill="none" stroke="#888"/>
<line x1="500" y1="208" x2="680" y2="28" stroke="#bbb" stroke-dasharray="4"/>
<text x="500" y="20">multilabel (p_yes), n=1010</text>
<text x="500" y="224">confidence → observed ↑</text>
<circle cx="502.5" cy="202.9" r="9.3" fill="#2f6bd6" fill-opacity="0.65"/>
<circle cx="526.7" cy="163.7" r="4.2" fill="#2f6bd6" fill-opacity="0.65"/>
<circle cx="544.5" cy="134.2" r="3.8" fill="#2f6bd6" fill-opacity="0.65"/>
<circle cx="562.3" cy="115.4" r="3.7" fill="#2f6bd6" fill-opacity="0.65"/>
<circle cx="582.2" cy="110.3" r="3.7" fill="#2f6bd6" fill-opacity="0.65"/>
<circle cx="597.6" cy="98.7" r="3.5" fill="#2f6bd6" fill-opacity="0.65"/>
<circle cx="618.4" cy="112.7" r="3.7" fill="#2f6bd6" fill-opacity="0.65"/>
<circle cx="634.9" cy="52.8" r="3.5" fill="#2f6bd6" fill-opacity="0.65"/>
<circle cx="652.9" cy="68.0" r="3.5" fill="#2f6bd6" fill-opacity="0.65"/>
<circle cx="673.8" cy="39.0" r="4.0" fill="#2f6bd6" fill-opacity="0.65"/>
</svg>
