<svg xmlns="http://www.w3.org/2000/svg" width="708" height="236" font-family="sans-serif" font-size="11">
<rect width="100%" height="100%" fill="white"/>
<rect x="28" y="28" width="180" height="180" fill="none" stroke="#888"/>
<line x1="28" y1="208" x2="208" y2="28" stroke="#bbb" stroke-dasharray="4"/>
<text x="28" y="20">binary (p_yes), n=984</text>
<text x="28" y="224">confidence → observed ↑</text>
<circle cx="31.6" cy="201.1" r="7.7" fill="#2f6bd6" fill-opacity="0.65"/>
<circle cx="54.3" cy="163.7" r="4.4" fill="#2f6bd6" fill-opacity="0.65"/>
<circle cx="71.9" cy="134.9" r="3.6" fill="#2f6bd6" fill-opacity="0.65"/>
<circle cx="89.8" cy="118.0" r="3.7" fill="#2f6bd6" fill-opacity="0.65"/>
<circle cx="107.7" cy="102.5" r="3.5" fill="#2f6bd6" fill-opacity="0.65"/>
<circle cx="127.2" cy="66.9" r="3.7" fill="#2f6bd6" fill-opacity="0.65"/>
<circle cx="145.0" cy="62.6" r="3.5" fill="#2f6bd6" fill-opacity="0.65"/>
<circle cx="164.0" cy="55.4" r="3.9" fill="#2f6bd6" fill-opacity="0.65"/>
<circle cx="181.4" cy="35.2" r="4.5" fill="#2f6bd6" fill-opacity="0.65"/>
<circle cx="202.3" cy="35.4" r="6.5" fill="#2f6bd6" fill-opacity="0.65"/>
<rect x="264" y="28" width="180" height="180" fill="none" stroke="#888"/>
<line x1="264" y1="208" x2="444" y2="28" stroke="#bbb" stroke-dasharray="4"/>
<text x="264" y="20">multiclass (top-label), n=2143</text>
<text x="264" y="224">confidence → observed ↑</text>
<circle cx="311.8" cy="148.0" r="2.3" fill="#2f6bd6" fill-opacity="0.65"/>
<circle cx="329.3" cy="158.3" r="3.0" fill="#2f6bd6" fill-opacity="0.65"/>
<circle cx="347.9" cy="128.0" r="3.8" fill="#2f6bd6" fill-opacity="0.65"/>
<circle cx="363.2" cy="111.0" r="4.6" fill="#2f6bd6" fill-opacity="0.65"/>
<circle cx="380.9" cy="95.0" r="4.6" fill="#2f6bd6" fill-opacity="0.65"/>
<circle cx="399.4" cy="78.5" r="5.1" fill="#2f6bd6" fill-opacity="0.65"/>
<circle cx="418.0" cy="51.1" r="5.1" fill="#2f6bd6" fill-opacity="0.65"/>
<circle cx="440.0" cy="33.8" r="8.6" fill="#2f6bd6" fill-opacity="0.65"/>
<rect x="500" y="28" width="180" height="180" fill="none" stroke="#888"/>
<line x1="500" y1="208" x2="680" y2="28" stroke="#bbb" stroke-dasharray="4"/>
<text x="500" y="20">multilabel (p_yes), n=2029</text>
<text x="500" y="224">confidence → observed ↑</text>
<circle cx="503.2" cy="204.3" r="9.1" fill="#2f6bd6" fill-opacity="0.65"/>
<circle cx="525.8" cy="178.5" r="4.3" fill="#2f6bd6" fill-opacity="0.65"/>
<circle cx="544.9" cy="150.1" r="3.8" fill="#2f6bd6" fill-opacity="0.65"/>
<circle cx="563.1" cy="155.9" r="3.7" fill="#2f6bd6" fill-opacity="0.65"/>
<circle cx="582.1" cy="144.8" r="3.5" fill="#2f6bd6" fill-opacity="0.65"/>
<circle cx="598.7" cy="132.2" r="3.5" fill="#2f6bd6" fill-opacity="0.65"/>
<circle cx="617.5" cy="74.4" r="3.6" fill="#2f6bd6" fill-opacity="0.65"/>
<circle cx="636.6" cy="86.6" r="3.9" fill="#2f6bd6" fill-opacity="0.65"/>
<circle cx="652.5" cy="56.0" r="3.9" fill="#2f6bd6" fill-opacity="0.65"/>
<circle cx="674.8" cy="35.4" r="4.2" fill="#2f6bd6" fill-opacity="0.65"/>
</svg>
