<svg xmlns="http://www.w3.org/2000/svg" width="708" height="236" font-family="sans-serif" font-size="11">
<rect width="100%" height="100%" fill="white"/>
<rect x="28" y="28" width="180" height="180" fill="none" stroke="#888"/>
<line x1="28" y1="208" x2="208" y2="28" stroke="#bbb" stroke-dasharray="4"/>
<text x="28" y="20">binary (p_yes), n=1016</text>
<text x="28" y="224">confidence → observed ↑</text>
<circle cx="29.4" cy="204.4" r="8.3" fill="#2f6bd6" fill-opacity="0.65"/>
<circle cx="54.2" cy="174.7" r="3.5" fill="#2f6bd6" fill-opacity="0.65"/>
<circle cx="70.9" cy="170.1" r="3.2" fill="#2f6bd6" fill-opacity="0.65"/>
<circle cx="89.8" cy="122.3" r="3.3" fill="#2f6bd6" fill-opacity="0.65"/>
<circle cx="109.4" cy="130.9" r="3.1" fill="#2f6bd6" fill-opacity="0.65"/>
<circle cx="126.4" cy="91.5" r="3.2" fill="#2f6bd6" fill-opacity="0.65"/>
<circle cx="144.6" cy="86.1" r="3.6" fill="#2f6bd6" fill-opacity="0.65"/>
<circle cx="162.6" cy="71.4" r="3.5" fill="#2f6bd6" fill-opacity="0.65"/>
<circle cx="181.9" cy="58.6" r="3.9" fill="#2f6bd6" fill-opacity="0.65"/>
<circle cx="204.1" cy="31.5" r="7.0" fill="#2f6bd6" fill-opacity="0.65"/>
<rect x="264" y="28" width="180" height="180" fill="none" stroke="#888"/>
<line x1="264" y1="208" x2="444" y2="28" stroke="#bbb" stroke-dasharray="4"/>
<text x="264" y="20">multiclass (top-label), n=593</text>
<text x="264" y="224">confidence → observed ↑</text>
<circle cx="312.5" cy="208.0" r="2.4" fill="#2f6bd6" fill-opacity="0.65"/>
<circle cx="325.5" cy="136.0" r="2.8" fill="#2f6bd6" fill-opacity="0.65"/>
<circle cx="343.8" cy="163.0" r="2.7" fill="#2f6bd6" fill-opacity="0.65"/>
<circle cx="363.0" cy="129.2" r="3.5" fill="#2f6bd6" fill-opacity="0.65"/>
<circle cx="382.2" cy="95.5" r="3.5" fill="#2f6bd6" fill-opacity="0.65"/>
<circle cx="400.5" cy="75.4" r="3.6" fill="#2f6bd6" fill-opacity="0.65"/>
<circle cx="417.9" cy="58.0" r="4.0" fill="#2f6bd6" fill-opacity="0.65"/>
<circle cx="442.4" cy="29.1" r="10.3" fill="#2f6bd6" fill-opacity="0.65"/>
<rect x="500" y="28" width="180" height="180" fill="none" stroke="#888"/>
<line x1="500" y1="208" x2="680" y2="28" stroke="#bbb" stroke-dasharray="4"/>
<text x="500" y="20">multilabel (p_yes), n=1882</text>
<text x="500" y="224">confidence → observed ↑</text>
<circle cx="501.6" cy="201.8" r="7.7" fill="#2f6bd6" fill-opacity="0.65"/>
<circle cx="526.4" cy="149.6" r="3.3" fill="#2f6bd6" fill-opacity="0.65"/>
<circle cx="544.5" cy="150.4" r="3.0" fill="#2f6bd6" fill-opacity="0.65"/>
<circle cx="562.7" cy="134.9" r="3.2" fill="#2f6bd6" fill-opacity="0.65"/>
<circle cx="581.6" cy="130.0" r="3.1" fill="#2f6bd6" fill-opacity="0.65"/>
<circle cx="597.2" cy="122.3" r="3.0" fill="#2f6bd6" fill-opacity="0.65"/>
<circle cx="618.4" cy="53.7" r="3.1" fill="#2f6bd6" fill-opacity="0.65"/>
<circle cx="636.0" cy="75.1" r="3.3" fill="#2f6bd6" fill-opacity="0.65"/>
<circle cx="653.6" cy="67.7" r="3.8" fill="#2f6bd6" fill-opacity="0.65"/>
<circle cx="677.2" cy="30.8" r="8.0" fill="#2f6bd6" fill-opacity="0.65"/>
</svg>
