<svg xmlns="http://www.w3.org/2000/svg" width="708" height="236" font-family="sans-serif" font-size="11">
<rect width="100%" height="100%" fill="white"/>
<rect x="28" y="28" width="180" height="180" fill="none" stroke="#888"/>
<line x1="28" y1="208" x2="208" y2="28" stroke="#bbb" stroke-dasharray="4"/>
<text x="28" y="20">binary (p_yes), n=210</text>
<text x="28" y="224">confidence → observed ↑</text>
<circle cx="32.3" cy="201.7" r="7.8" fill="#2f6bd6" fill-opacity="0.65"/>
<circle cx="52.5" cy="181.0" r="4.8" fill="#2f6bd6" fill-opacity="0.65"/>
<circle cx="72.0" cy="178.0" r="4.2" fill="#2f6bd6" fill-opacity="0.65"/>
<circle cx="94.4" cy="133.0" r="4.2" fill="#2f6bd6" fill-opacity="0.65"/>
<circle cx="106.7" cy="156.6" r="3.6" fill="#2f6bd6" fill-opacity="0.65"/>
<circle cx="125.3" cy="100.0" r="4.0" fill="#2f6bd6" fill-opacity="0.65"/>
<circle cx="144.8" cy="53.7" r="3.6" fill="#2f6bd6" fill-opacity="0.65"/>
<circle cx="160.9" cy="58.0" r="3.5" fill="#2f6bd6" fill-opacity="0.65"/>
<circle cx="182.3" cy="64.0" r="4.0" fill="#2f6bd6" fill-opacity="0.65"/>
<circle cx="201.4" cy="32.5" r="5.9" fill="#2f6bd6" fill-opacity="0.65"/>
<rect x="264" y="28" width="180" height="180" fill="none" stroke="#888"/>
<line x1="264" y1="208" x2="444" y2="28" stroke="#bbb" stroke-dasharray="4"/>
<text x="264" y="20">multiclass (top-label), n=486</text>
<text x="264" y="224">confidence → observed ↑</text>
<circle cx="317.2" cy="208.0" r="2.6" fill="#2f6bd6" fill-opacity="0.65"/>
<circle cx="328.9" cy="118.0" r="2.8" fill="#2f6bd6" fill-opacity="0.65"/>
<circle cx="347.0" cy="138.8" r="4.1" fill="#2f6bd6" fill-opacity="0.65"/>
<circle cx="365.1" cy="101.6" r="4.7" fill="#2f6bd6" fill-opacity="0.65"/>
<circle cx="382.2" cy="82.0" r="4.9" fill="#2f6bd6" fill-opacity="0.65"/>
<circle cx="398.0" cy="68.9" r="4.7" fill="#2f6bd6" fill-opacity="0.65"/>
<circle cx="418.4" cy="59.2" r="4.9" fill="#2f6bd6" fill-opacity="0.65"/>
<circle cx="440.0" cy="34.8" r="8.6" fill="#2f6bd6" fill-opacity="0.65"/>
<rect x="500" y="28" width="180" height="180" fill="none" stroke="#888"/>
<line x1="500" y1="208" x2="680" y2="28" stroke="#bbb" stroke-dasharray="4"/>
<text x="500" y="20">multilabel (p_yes), n=1010</text>
<text x="500" y="224">confidence → observed ↑</text>
<circle cx="503.6" cy="202.9" r="8.8" fill="#2f6bd6" fill-opacity="0.65"/>
<circle cx="525.1" cy="181.7" r="4.6" fill="#2f6bd6" fill-opacity="0.65"/>
<circle cx="544.6" cy="155.2" r="4.2" fill="#2f6bd6" fill-opacity="0.65"/>
<circle cx="562.2" cy="144.5" r="4.0" fill="#2f6bd6" fill-opacity="0.65"/>
<circle cx="582.6" cy="111.7" r="3.9" fill="#2f6bd6" fill-opacity="0.65"/>
<circle cx="598.9" cy="126.4" r="4.3" fill="#2f6bd6" fill-opacity="0.65"/>
<circle cx="616.1" cy="94.3" r="3.7" fill="#2f6bd6" fill-opacity="0.65"/>
<circle cx="634.5" cy="88.0" r="3.6" fill="#2f6bd6" fill-opacity="0.65"/>
<circle cx="653.6" cy="74.7" r="3.5" fill="#2f6bd6" fill-opacity="0.65"/>
<circle cx="670.5" cy="76.8" r="4.0" fill="#2f6bd6" fill-opacity="0.65"/>
</svg>
