<svg xmlns="http://www.w3.org/2000/svg" width="708" height="236" font-family="sans-serif" font-size="11">
<rect width="100%" height="100%" fill="white"/>
<rect x="28" y="28" width="180" height="180" fill="none" stroke="#888"/>
<line x1="28" y1="208" x2="208" y2="28" stroke="#bbb" stroke-dasharray="4"/>
<text x="28" y="20">binary (p_yes), n=488</text>
<text x="28" y="224">confidence → observed ↑</text>
<circle cx="35.3" cy="207.0" r="7.5" fill="#2f6bd6" fill-opacity="0.65"/>
<circle cx="53.0" cy="198.5" r="3.8" fill="#2f6bd6" fill-opacity="0.65"/>
<circle cx="72.4" cy="185.5" r="3.2" fill="#2f6bd6" fill-opacity="0.65"/>
<circle cx="89.0" cy="178.0" r="3.0" fill="#2f6bd6" fill-opacity="0.65"/>
<circle cx="108.8" cy="182.3" r="3.1" fill="#2f6bd6" fill-opacity="0.65"/>
<circle cx="125.5" cy="118.0" r="3.4" fill="#2f6bd6" fill-opacity="0.65"/>
<circle cx="144.3" cy="83.4" r="3.5" fill="#2f6bd6" fill-opacity="0.65"/>
<circle cx="163.2" cy="79.4" r="3.5" fill="#2f6bd6" fill-opacity="0.65"/>
<circle cx="183.8" cy="47.3" r="4.2" fill="#2f6bd6" fill-opacity="0.65"/>
<circle cx="202.1" cy="33.5" r="7.7" fill="#2f6bd6" fill-opacity="0.65"/>
<rect x="264" y="28" width="180" height="180" fill="none" stroke="#888"/>
<line x1="264" y1="208" x2="444" y2="28" stroke="#bbb" stroke-dasharray="4"/>
<text x="264" y="20">multiclass (top-label), n=276</text>
<text x="264" y="224">confidence → observed ↑</text>
<circle cx="348.9" cy="118.0" r="2.8" fill="#2f6bd6" fill-opacity="0.65"/>
<circle cx="362.8" cy="95.5" r="3.5" fill="#2f6bd6" fill-opacity="0.65"/>
<circle cx="383.3" cy="128.0" r="3.6" fill="#2f6bd6" fill-opacity="0.65"/>
<circle cx="396.2" cy="68.0" r="3.6" fill="#2f6bd6" fill-opacity="0.65"/>
<circle cx="419.0" cy="39.2" r="4.2" fill="#2f6bd6" fill-opacity="0.65"/>
<circle cx="441.3" cy="30.3" r="10.3" fill="#2f6bd6" fill-opacity="0.65"/>
<rect x="500" y="28" width="180" height="180" fill="none" stroke="#888"/>
<line x1="500" y1="208" x2="680" y2="28" stroke="#bbb" stroke-dasharray="4"/>
<text x="500" y="20">multilabel (p_yes), n=864</text>
<text x="500" y="224">confidence → observed ↑</text>
<circle cx="506.3" cy="205.6" r="7.9" fill="#2f6bd6" fill-opacity="0.65"/>
<circle cx="524.7" cy="173.9" r="3.9" fill="#2f6bd6" fill-opacity="0.65"/>
<circle cx="543.5" cy="152.6" r="3.1" fill="#2f6bd6" fill-opacity="0.65"/>
<circle cx="562.6" cy="133.0" r="3.1" fill="#2f6bd6" fill-opacity="0.65"/>
<circle cx="581.6" cy="140.5" r="2.9" fill="#2f6bd6" fill-opacity="0.65"/>
<circle cx="599.4" cy="73.0" r="2.9" fill="#2f6bd6" fill-opacity="0.65"/>
<circle cx="616.4" cy="105.1" r="2.8" fill="#2f6bd6" fill-opacity="0.65"/>
<circle cx="634.7" cy="65.9" r="3.3" fill="#2f6bd6" fill-opacity="0.65"/>
<circle cx="652.6" cy="38.3" r="3.8" fill="#2f6bd6" fill-opacity="0.65"/>
<circle cx="675.2" cy="30.1" r="7.7" fill="#2f6bd6" fill-opacity="0.65"/>
</svg>
