<svg xmlns="http://www.w3.org/2000/svg" width="708" height="236" font-family="sans-serif" font-size="11">
<rect width="100%" height="100%" fill="white"/>
<rect x="28" y="28" width="180" height="180" fill="none" stroke="#888"/>
<line x1="28" y1="208" x2="208" y2="28" stroke="#bbb" stroke-dasharray="4"/>
<text x="28" y="20">binary (p_yes), n=46</text>
<text x="28" y="224">confidence → observed ↑</text>
<circle cx="30.4" cy="208.0" r="7.8" fill="#2f6bd6" fill-opacity="0.65"/>
<circle cx="52.0" cy="208.0" r="4.7" fill="#2f6bd6" fill-opacity="0.65"/>
<circle cx="70.1" cy="28.0" r="3.3" fill="#2f6bd6" fill-opacity="0.65"/>
<circle cx="109.6" cy="118.0" r="3.9" fill="#2f6bd6" fill-opacity="0.65"/>
<circle cx="150.3" cy="208.0" r="3.3" fill="#2f6bd6" fill-opacity="0.65"/>
<circle cx="163.9" cy="28.0" r="3.3" fill="#2f6bd6" fill-opacity="0.65"/>
<circle cx="183.7" cy="28.0" r="4.3" fill="#2f6bd6" fill-opacity="0.65"/>
<circle cx="205.9" cy="28.0" r="7.1" fill="#2f6bd6" fill-opacity="0.65"/>
<rect x="264" y="28" width="180" height="180" fill="none" stroke="#888"/>
<line x1="264" y1="208" x2="444" y2="28" stroke="#bbb" stroke-dasharray="4"/>
<text x="264" y="20">multiclass (top-label), n=27</text>
<text x="264" y="224">confidence → observed ↑</text>
<circle cx="419.6" cy="64.0" r="5.9" fill="#2f6bd6" fill-opacity="0.65"/>
<circle cx="441.3" cy="28.0" r="10.1" fill="#2f6bd6" fill-opacity="0.65"/>
<rect x="500" y="28" width="180" height="180" fill="none" stroke="#888"/>
<line x1="500" y1="208" x2="680" y2="28" stroke="#bbb" stroke-dasharray="4"/>
<text x="500" y="20">multilabel (p_yes), n=86</text>
<text x="500" y="224">confidence → observed ↑</text>
<circle cx="502.0" cy="208.0" r="8.1" fill="#2f6bd6" fill-opacity="0.65"/>
<circle cx="532.8" cy="208.0" r="3.4" fill="#2f6bd6" fill-opacity="0.65"/>
<circle cx="547.1" cy="148.0" r="3.7" fill="#2f6bd6" fill-opacity="0.65"/>
<circle cx="566.2" cy="208.0" r="3.7" fill="#2f6bd6" fill-opacity="0.65"/>
<circle cx="595.6" cy="88.0" r="3.7" fill="#2f6bd6" fill-opacity="0.65"/>
<circle cx="612.0" cy="118.0" r="3.4" fill="#2f6bd6" fill-opacity="0.65"/>
<circle cx="655.9" cy="73.0" r="3.9" fill="#2f6bd6" fill-opacity="0.65"/>
<circle cx="677.0" cy="28.0" r="7.2" fill="#2f6bd6" fill-opacity="0.65"/>
</svg>
