<svg xmlns="http://www.w3.org/2000/svg" width="708" height="236" font-family="sans-serif" font-size="11">
<rect width="100%" height="100%" fill="white"/>
<rect x="28" y="28" width="180" height="180" fill="none" stroke="#888"/>
<line x1="28" y1="208" x2="208" y2="28" stroke="#bbb" stroke-dasharray="4"/>
<text x="28" y="20">binary (p_yes), n=210</text>
<text x="28" y="224">confidence → observed ↑</text>
<circle cx="36.1" cy="157.0" r="6.8" fill="#2f6bd6" fill-opacity="0.65"/>
<circle cx="55.2" cy="141.1" r="5.7" fill="#2f6bd6" fill-opacity="0.65"/>
<circle cx="73.2" cy="180.3" r="5.2" fill="#2f6bd6" fill-opacity="0.65"/>
<circle cx="90.5" cy="151.2" r="4.7" fill="#2f6bd6" fill-opacity="0.65"/>
<circle cx="107.2" cy="196.0" r="4.4" fill="#2f6bd6" fill-opacity="0.65"/>
<circle cx="125.2" cy="152.6" r="4.2" fill="#2f6bd6" fill-opacity="0.65"/>
<circle cx="141.6" cy="73.0" r="3.2" fill="#2f6bd6" fill-opacity="0.65"/>
<circle cx="161.3" cy="88.0" r="3.5" fill="#2f6bd6" fill-opacity="0.65"/>
<circle cx="182.3" cy="49.2" r="4.6" fill="#2f6bd6" fill-opacity="0.65"/>
<circle cx="197.0" cy="64.0" r="4.4" fill="#2f6bd6" fill-opacity="0.65"/>
<rect x="264" y="28" width="180" height="180" fill="none" stroke="#888"/>
<line x1="264" y1="208" x2="444" y2="28" stroke="#bbb" stroke-dasharray="4"/>
<text x="264" y="20">multiclass (top-label), n=486</text>
<text x="264" y="224">confidence → observed ↑</text>
<circle cx="296.8" cy="208.0" r="2.4" fill="#2f6bd6" fill-opacity="0.65"/>
<circle cx="310.4" cy="88.0" r="3.0" fill="#2f6bd6" fill-opacity="0.65"/>
<circle cx="331.4" cy="143.4" r="4.5" fill="#2f6bd6" fill-opacity="0.65"/>
<circle cx="344.2" cy="133.6" r="5.5" fill="#2f6bd6" fill-opacity="0.65"/>
<circle cx="361.6" cy="99.5" r="5.4" fill="#2f6bd6" fill-opacity="0.65"/>
<circle cx="380.3" cy="78.2" r="4.7" fill="#2f6bd6" fill-opacity="0.65"/>
<circle cx="398.8" cy="60.5" r="5.2" fill="#2f6bd6" fill-opacity="0.65"/>
<circle cx="417.8" cy="52.3" r="5.5" fill="#2f6bd6" fill-opacity="0.65"/>
<circle cx="435.4" cy="32.5" r="6.5" fill="#2f6bd6" fill-opacity="0.65"/>
<rect x="500" y="28" width="180" height="180" fill="none" stroke="#888"/>
<line x1="500" y1="208" x2="680" y2="28" stroke="#bbb" stroke-dasharray="4"/>
<text x="500" y="20">multilabel (p_yes), n=1010</text>
<text x="500" y="224">confidence → observed ↑</text>
<circle cx="502.1" cy="170.7" r="10.8" fill="#2f6bd6" fill-opacity="0.65"/>
<circle cx="524.0" cy="150.7" r="3.3" fill="#2f6bd6" fill-opacity="0.65"/>
<circle cx="543.9" cy="142.5" r="2.9" fill="#2f6bd6" fill-opacity="0.65"/>
<circle cx="554.3" cy="28.0" r="2.3" fill="#2f6bd6" fill-opacity="0.65"/>
<circle cx="599.6" cy="208.0" r="2.3" fill="#2f6bd6" fill-opacity="0.65"/>
<circle cx="611.4" cy="208.0" r="2.3" fill="#2f6bd6" fill-opacity="0.65"/>
</svg>
