<svg xmlns="http://www.w3.org/2000/svg" width="708" height="236" font-family="sans-serif" font-size="11">
<rect width="100%" height="100%" fill="white"/>
<rect x="28" y="28" width="180" height="180" fill="none" stroke="#888"/>
<line x1="28" y1="208" x2="208" y2="28" stroke="#bbb" stroke-dasharray="4"/>
<text x="28" y="20">binary (p_yes), n=984</text>
<text x="28" y="224">confidence → observed ↑</text>
<circle cx="34.7" cy="201.4" r="7.8" fill="#2f6bd6" fill-opacity="0.65"/>
<circle cx="52.9" cy="167.6" r="4.0" fill="#2f6bd6" fill-opacity="0.65"/>
<circle cx="73.1" cy="168.0" r="3.5" fill="#2f6bd6" fill-opacity="0.65"/>
<circle cx="88.0" cy="133.9" r="3.2" fill="#2f6bd6" fill-opacity="0.65"/>
<circle cx="108.8" cy="93.5" r="3.0" fill="#2f6bd6" fill-opacity="0.65"/>
<circle cx="127.8" cy="110.5" r="3.4" fill="#2f6bd6" fill-opacity="0.65"/>
<circle cx="144.9" cy="82.0" r="3.6" fill="#2f6bd6" fill-opacity="0.65"/>
<circle cx="163.3" cy="67.4" r="3.6" fill="#2f6bd6" fill-opacity="0.65"/>
<circle cx="181.2" cy="49.2" r="4.4" fill="#2f6bd6" fill-opacity="0.65"/>
<circle cx="202.1" cy="30.3" r="7.1" fill="#2f6bd6" fill-opacity="0.65"/>
<rect x="264" y="28" width="180" height="180" fill="none" stroke="#888"/>
<line x1="264" y1="208" x2="444" y2="28" stroke="#bbb" stroke-dasharray="4"/>
<text x="264" y="20">multiclass (top-label), n=2143</text>
<text x="264" y="224">confidence → observed ↑</text>
<circle cx="308.2" cy="163.0" r="2.4" fill="#2f6bd6" fill-opacity="0.65"/>
<circle cx="327.6" cy="133.0" r="3.0" fill="#2f6bd6" fill-opacity="0.65"/>
<circle cx="346.4" cy="150.6" r="3.3" fill="#2f6bd6" fill-opacity="0.65"/>
<circle cx="362.3" cy="123.1" r="4.0" fill="#2f6bd6" fill-opacity="0.65"/>
<circle cx="380.8" cy="103.5" r="4.1" fill="#2f6bd6" fill-opacity="0.65"/>
<circle cx="399.1" cy="95.3" r="4.2" fill="#2f6bd6" fill-opacity="0.65"/>
<circle cx="418.6" cy="75.5" r="4.7" fill="#2f6bd6" fill-opacity="0.65"/>
<circle cx="441.0" cy="35.5" r="9.6" fill="#2f6bd6" fill-opacity="0.65"/>
<rect x="500" y="28" width="180" height="180" fill="none" stroke="#888"/>
<line x1="500" y1="208" x2="680" y2="28" stroke="#bbb" stroke-dasharray="4"/>
<text x="500" y="20">multilabel (p_yes), n=2029</text>
<text x="500" y="224">confidence → observed ↑</text>
<circle cx="505.9" cy="205.0" r="8.7" fill="#2f6bd6" fill-opacity="0.65"/>
<circle cx="525.5" cy="186.4" r="5.0" fill="#2f6bd6" fill-opacity="0.65"/>
<circle cx="543.9" cy="167.1" r="3.9" fill="#2f6bd6" fill-opacity="0.65"/>
<circle cx="562.5" cy="157.6" r="3.7" fill="#2f6bd6" fill-opacity="0.65"/>
<circle cx="580.3" cy="122.0" r="3.6" fill="#2f6bd6" fill-opacity="0.65"/>
<circle cx="599.3" cy="114.9" r="3.5" fill="#2f6bd6" fill-opacity="0.65"/>
<circle cx="617.2" cy="119.2" r="3.8" fill="#2f6bd6" fill-opacity="0.65"/>
<circle cx="634.9" cy="94.0" r="3.5" fill="#2f6bd6" fill-opacity="0.65"/>
<circle cx="653.4" cy="70.4" r="3.6" fill="#2f6bd6" fill-opacity="0.65"/>
<circle cx="673.4" cy="34.4" r="4.6" fill="#2f6bd6" fill-opacity="0.65"/>
</svg>
