<svg xmlns="http://www.w3.org/2000/svg" width="708" height="236" font-family="sans-serif" font-size="11">
<rect width="100%" height="100%" fill="white"/>
<rect x="28" y="28" width="180" height="180" fill="none" stroke="#888"/>
<line x1="28" y1="208" x2="208" y2="28" stroke="#bbb" stroke-dasharray="4"/>
<text x="28" y="20">binary (p_yes), n=984</text>
<text x="28" y="224">confidence → observed ↑</text>
<circle cx="35.7" cy="202.9" r="7.7" fill="#2f6bd6" fill-opacity="0.65"/>
<circle cx="53.0" cy="179.4" r="4.3" fill="#2f6bd6" fill-opacity="0.65"/>
<circle cx="71.1" cy="143.4" r="3.8" fill="#2f6bd6" fill-opacity="0.65"/>
<circle cx="90.3" cy="121.6" r="3.4" fill="#2f6bd6" fill-opacity="0.65"/>
<circle cx="109.9" cy="133.0" r="3.4" fill="#2f6bd6" fill-opacity="0.65"/>
<circle cx="126.5" cy="64.0" r="3.4" fill="#2f6bd6" fill-opacity="0.65"/>
<circle cx="144.8" cy="66.9" r="3.7" fill="#2f6bd6" fill-opacity="0.65"/>
<circle cx="163.5" cy="51.8" r="4.1" fill="#2f6bd6" fill-opacity="0.65"/>
<circle cx="181.9" cy="35.7" r="4.4" fill="#2f6bd6" fill-opacity="0.65"/>
<circle cx="200.7" cy="29.4" r="6.6" fill="#2f6bd6" fill-opacity="0.65"/>
<rect x="264" y="28" width="180" height="180" fill="none" stroke="#888"/>
<line x1="264" y1="208" x2="444" y2="28" stroke="#bbb" stroke-dasharray="4"/>
<text x="264" y="20">multiclass (top-label), n=2143</text>
<text x="264" y="224">confidence → observed ↑</text>
<circle cx="311.5" cy="140.5" r="2.5" fill="#2f6bd6" fill-opacity="0.65"/>
<circle cx="329.7" cy="113.7" r="2.9" fill="#2f6bd6" fill-opacity="0.65"/>
<circle cx="347.1" cy="146.9" r="3.5" fill="#2f6bd6" fill-opacity="0.65"/>
<circle cx="363.4" cy="115.7" r="4.1" fill="#2f6bd6" fill-opacity="0.65"/>
<circle cx="381.5" cy="102.0" r="4.2" fill="#2f6bd6" fill-opacity="0.65"/>
<circle cx="399.5" cy="88.9" r="4.3" fill="#2f6bd6" fill-opacity="0.65"/>
<circle cx="418.3" cy="69.5" r="5.0" fill="#2f6bd6" fill-opacity="0.65"/>
<circle cx="440.7" cy="34.5" r="9.4" fill="#2f6bd6" fill-opacity="0.65"/>
<rect x="500" y="28" width="180" height="180" fill="none" stroke="#888"/>
<line x1="500" y1="208" x2="680" y2="28" stroke="#bbb" stroke-dasharray="4"/>
<text x="500" y="20">multilabel (p_yes), n=2029</text>
<text x="500" y="224">confidence → observed ↑</text>
<circle cx="506.9" cy="205.5" r="8.6" fill="#2f6bd6" fill-opacity="0.65"/>
<circle cx="525.8" cy="190.6" r="5.2" fill="#2f6bd6" fill-opacity="0.65"/>
<circle cx="544.6" cy="173.7" r="4.0" fill="#2f6bd6" fill-opacity="0.65"/>
<circle cx="563.3" cy="166.1" r="3.7" fill="#2f6bd6" fill-opacity="0.65"/>
<circle cx="581.7" cy="113.4" r="3.8" fill="#2f6bd6" fill-opacity="0.65"/>
<circle cx="599.3" cy="118.0" r="3.7" fill="#2f6bd6" fill-opacity="0.65"/>
<circle cx="616.0" cy="110.0" r="3.8" fill="#2f6bd6" fill-opacity="0.65"/>
<circle cx="635.6" cy="70.7" r="3.5" fill="#2f6bd6" fill-opacity="0.65"/>
<circle cx="653.4" cy="74.2" r="3.7" fill="#2f6bd6" fill-opacity="0.65"/>
<circle cx="673.4" cy="32.9" r="4.4" fill="#2f6bd6" fill-opacity="0.65"/>
</svg>
