<svg xmlns="http://www.w3.org/2000/svg" width="708" height="236" font-family="sans-serif" font-size="11">
<rect width="100%" height="100%" fill="white"/>
<rect x="28" y="28" width="180" height="180" fill="none" stroke="#888"/>
<line x1="28" y1="208" x2="208" y2="28" stroke="#bbb" stroke-dasharray="4"/>
<text x="28" y="20">binary (p_yes), n=210</text>
<text x="28" y="224">confidence → observed ↑</text>
<circle cx="30.5" cy="206.2" r="8.3" fill="#2f6bd6" fill-opacity="0.65"/>
<circle cx="54.3" cy="178.0" r="3.5" fill="#2f6bd6" fill-opacity="0.65"/>
<circle cx="71.6" cy="182.3" r="3.6" fill="#2f6bd6" fill-opacity="0.65"/>
<circle cx="92.1" cy="208.0" r="3.4" fill="#2f6bd6" fill-opacity="0.65"/>
<circle cx="104.7" cy="208.0" r="2.9" fill="#2f6bd6" fill-opacity="0.65"/>
<circle cx="132.4" cy="28.0" r="2.9" fill="#2f6bd6" fill-opacity="0.65"/>
<circle cx="146.1" cy="163.0" r="3.2" fill="#2f6bd6" fill-opacity="0.65"/>
<circle cx="163.3" cy="79.4" r="3.6" fill="#2f6bd6" fill-opacity="0.65"/>
<circle cx="182.6" cy="73.0" r="3.8" fill="#2f6bd6" fill-opacity="0.65"/>
<circle cx="204.4" cy="41.4" r="7.1" fill="#2f6bd6" fill-opacity="0.65"/>
<rect x="264" y="28" width="180" height="180" fill="none" stroke="#888"/>
<line x1="264" y1="208" x2="444" y2="28" stroke="#bbb" stroke-dasharray="4"/>
<text x="264" y="20">multiclass (top-label), n=486</text>
<text x="264" y="224">confidence → observed ↑</text>
<circle cx="324.3" cy="208.0" r="2.4" fill="#2f6bd6" fill-opacity="0.65"/>
<circle cx="346.5" cy="109.8" r="3.4" fill="#2f6bd6" fill-opacity="0.65"/>
<circle cx="364.0" cy="124.9" r="4.5" fill="#2f6bd6" fill-opacity="0.65"/>
<circle cx="381.0" cy="102.1" r="4.9" fill="#2f6bd6" fill-opacity="0.65"/>
<circle cx="399.2" cy="68.0" r="5.0" fill="#2f6bd6" fill-opacity="0.65"/>
<circle cx="417.4" cy="51.6" r="5.2" fill="#2f6bd6" fill-opacity="0.65"/>
<circle cx="439.7" cy="32.7" r="8.7" fill="#2f6bd6" fill-opacity="0.65"/>
<rect x="500" y="28" width="180" height="180" fill="none" stroke="#888"/>
<line x1="500" y1="208" x2="680" y2="28" stroke="#bbb" stroke-dasharray="4"/>
<text x="500" y="20">multilabel (p_yes), n=1010</text>
<text x="500" y="224">confidence → observed ↑</text>
<circle cx="503.8" cy="205.0" r="8.9" fill="#2f6bd6" fill-opacity="0.65"/>
<circle cx="526.0" cy="187.3" r="4.6" fill="#2f6bd6" fill-opacity="0.65"/>
<circle cx="544.9" cy="154.4" r="3.9" fill="#2f6bd6" fill-opacity="0.65"/>
<circle cx="563.5" cy="125.3" r="3.7" fill="#2f6bd6" fill-opacity="0.65"/>
<circle cx="579.8" cy="128.0" r="3.7" fill="#2f6bd6" fill-opacity="0.65"/>
<circle cx="599.2" cy="123.3" r="3.7" fill="#2f6bd6" fill-opacity="0.65"/>
<circle cx="616.6" cy="101.8" r="3.8" fill="#2f6bd6" fill-opacity="0.65"/>
<circle cx="635.1" cy="86.8" r="4.0" fill="#2f6bd6" fill-opacity="0.65"/>
<circle cx="653.2" cy="47.5" r="3.7" fill="#2f6bd6" fill-opacity="0.65"/>
<circle cx="672.5" cy="47.1" r="3.9" fill="#2f6bd6" fill-opacity="0.65"/>
</svg>
