<svg xmlns="http://www.w3.org/2000/svg" width="708" height="236" font-family="sans-serif" font-size="11">
<rect width="100%" height="100%" fill="white"/>
<rect x="28" y="28" width="180" height="180" fill="none" stroke="#888"/>
<line x1="28" y1="208" x2="208" y2="28" stroke="#bbb" stroke-dasharray="4"/>
<text x="28" y="20">binary (p_yes), n=984</text>
<text x="28" y="224">confidence → observed ↑</text>
<circle cx="32.1" cy="200.5" r="7.8" fill="#2f6bd6" fill-opacity="0.65"/>
<circle cx="56.7" cy="145.6" r="4.0" fill="#2f6bd6" fill-opacity="0.65"/>
<circle cx="75.6" cy="158.9" r="3.6" fill="#2f6bd6" fill-opacity="0.65"/>
<circle cx="94.0" cy="73.0" r="3.5" fill="#2f6bd6" fill-opacity="0.65"/>
<circle cx="108.5" cy="88.0" r="3.0" fill="#2f6bd6" fill-opacity="0.65"/>
<circle cx="124.5" cy="77.1" r="3.9" fill="#2f6bd6" fill-opacity="0.65"/>
<circle cx="142.8" cy="82.5" r="3.6" fill="#2f6bd6" fill-opacity="0.65"/>
<circle cx="161.8" cy="57.5" r="4.1" fill="#2f6bd6" fill-opacity="0.65"/>
<circle cx="181.9" cy="47.8" r="4.6" fill="#2f6bd6" fill-opacity="0.65"/>
<circle cx="202.1" cy="37.7" r="6.5" fill="#2f6bd6" fill-opacity="0.65"/>
<rect x="264" y="28" width="180" height="180" fill="none" stroke="#888"/>
<line x1="264" y1="208" x2="444" y2="28" stroke="#bbb" stroke-dasharray="4"/>
<text x="264" y="20">multiclass (top-label), n=2143</text>
<text x="264" y="224">confidence → observed ↑</text>
<circle cx="313.5" cy="136.0" r="2.4" fill="#2f6bd6" fill-opacity="0.65"/>
<circle cx="328.7" cy="136.0" r="3.4" fill="#2f6bd6" fill-opacity="0.65"/>
<circle cx="346.9" cy="124.1" r="4.1" fill="#2f6bd6" fill-opacity="0.65"/>
<circle cx="362.7" cy="119.0" r="4.6" fill="#2f6bd6" fill-opacity="0.65"/>
<circle cx="380.9" cy="89.2" r="4.7" fill="#2f6bd6" fill-opacity="0.65"/>
<circle cx="399.3" cy="68.0" r="4.7" fill="#2f6bd6" fill-opacity="0.65"/>
<circle cx="417.3" cy="57.0" r="5.2" fill="#2f6bd6" fill-opacity="0.65"/>
<circle cx="439.5" cy="32.5" r="8.5" fill="#2f6bd6" fill-opacity="0.65"/>
<rect x="500" y="28" width="180" height="180" fill="none" stroke="#888"/>
<line x1="500" y1="208" x2="680" y2="28" stroke="#bbb" stroke-dasharray="4"/>
<text x="500" y="20">multilabel (p_yes), n=2029</text>
<text x="500" y="224">confidence → observed ↑</text>
<circle cx="504.0" cy="203.4" r="9.0" fill="#2f6bd6" fill-opacity="0.65"/>
<circle cx="525.5" cy="184.2" r="4.4" fill="#2f6bd6" fill-opacity="0.65"/>
<circle cx="543.9" cy="155.1" r="3.8" fill="#2f6bd6" fill-opacity="0.65"/>
<circle cx="561.5" cy="132.7" r="4.0" fill="#2f6bd6" fill-opacity="0.65"/>
<circle cx="579.9" cy="144.3" r="3.6" fill="#2f6bd6" fill-opacity="0.65"/>
<circle cx="598.2" cy="89.4" r="3.8" fill="#2f6bd6" fill-opacity="0.65"/>
<circle cx="617.5" cy="100.0" r="3.8" fill="#2f6bd6" fill-opacity="0.65"/>
<circle cx="634.9" cy="64.0" r="3.5" fill="#2f6bd6" fill-opacity="0.65"/>
<circle cx="652.2" cy="72.2" r="3.5" fill="#2f6bd6" fill-opacity="0.65"/>
<circle cx="672.6" cy="35.9" r="4.1" fill="#2f6bd6" fill-opacity="0.65"/>
</svg>
